<?xml version="1.0" encoding="utf-8"?>
<svg xmlns="http://www.w3.org/2000/svg" viewBox="0 0 200 34"><path d="M5.83,12.97c0.26-0.62,0.63-1.28,1.13-1.98c0.5-0.7,1.13-1.36,1.89-1.97s1.66-1.11,2.7-1.51c1.04-0.39,2.23-0.59,3.56-0.59c1.46,0,2.81,0.27,4.04,0.8c1.24,0.53,2.3,1.25,3.19,2.15c0.89,0.9,1.59,1.95,2.08,3.15c0.5,1.2,0.75,2.46,0.75,3.78c0,1.32-0.25,2.58-0.75,3.78c-0.5,1.2-1.19,2.25-2.08,3.15c-0.89,0.9-1.96,1.62-3.19,2.15c-1.24,0.53-2.59,0.8-4.07,0.8c-1.49,0-2.86-0.27-4.09-0.82c-1.24-0.55-2.29-1.27-3.17-2.18c-0.88-0.9-1.55-1.93-2.03-3.09s-0.72-2.35-0.72-3.57c0-0.63,0.05-1.29,0.15-1.98C5.34,14.37,5.54,13.68,5.83,12.97z M9.95,16.76c0,0.74,0.12,1.45,0.36,2.12c0.24,0.68,0.59,1.28,1.04,1.8c0.45,0.52,1,0.94,1.65,1.26s1.38,0.48,2.2,0.48c0.86,0,1.61-0.18,2.25-0.53s1.18-0.8,1.6-1.35c0.42-0.55,0.74-1.15,0.95-1.8c0.21-0.65,0.32-1.29,0.32-1.9c0-0.62-0.11-1.26-0.32-1.92c-0.21-0.66-0.53-1.27-0.95-1.83c-0.42-0.56-0.96-1.01-1.61-1.36c-0.65-0.35-1.42-0.53-2.29-0.53c-0.84,0-1.59,0.16-2.24,0.49s-1.2,0.75-1.63,1.29s-0.77,1.13-0.99,1.79C10.06,15.42,9.95,16.09,9.95,16.76z M26.35,12.05h3.99v1.52h0.05c0.1-0.17,0.24-0.37,0.42-0.6c0.18-0.23,0.42-0.45,0.72-0.66c0.3-0.21,0.67-0.38,1.12-0.53c0.45-0.15,0.99-0.22,1.62-0.22c0.69,0,1.37,0.12,2.05,0.36c0.68,0.24,1.21,0.53,1.61,0.88c0.19,0.17,0.38,0.37,0.58,0.61c0.2,0.23,0.37,0.53,0.53,0.89s0.28,0.79,0.39,1.3c0.1,0.51,0.15,1.11,0.15,1.81v8.93H35.3v-7.8c0-0.26-0.01-0.55-0.04-0.89s-0.11-0.66-0.24-0.97c-0.14-0.31-0.36-0.57-0.66-0.79c-0.3-0.21-0.73-0.32-1.3-0.32c-0.62,0-1.09,0.12-1.42,0.35c-0.33,0.23-0.57,0.51-0.72,0.82c-0.15,0.32-0.24,0.64-0.27,0.98c-0.03,0.33-0.04,0.61-0.04,0.84v7.77h-4.27V12.05z M55.1,21.85c-0.34,0.81-0.76,1.51-1.26,2.12c-0.5,0.61-1.05,1.12-1.65,1.53c-1.2,0.86-2.56,1.29-4.07,1.29c-1.03,0-2-0.19-2.91-0.58c-0.91-0.39-1.71-0.92-2.41-1.61c-0.69-0.69-1.24-1.49-1.65-2.41c-0.4-0.92-0.6-1.91-0.6-2.97c0-1,0.18-1.96,0.55-2.88c0.37-0.93,0.89-1.74,1.56-2.45c0.67-0.7,1.46-1.27,2.38-1.7c0.92-0.43,1.92-0.64,3-0.64c1.08,0,2.09,0.2,3.01,0.6c0.93,0.4,1.72,0.96,2.39,1.66c0.67,0.7,1.19,1.53,1.57,2.48c0.38,0.95,0.57,1.97,0.57,3.05c0,0.29-0.01,0.51-0.03,0.66c-0.02,0.15-0.04,0.3-0.08,0.48H44.78c0.14,0.86,0.52,1.52,1.15,1.99c0.63,0.47,1.36,0.71,2.2,0.71c0.65,0,1.18-0.13,1.57-0.39c0.39-0.26,0.74-0.58,1.03-0.95H55.1z M51.31,17.61c-0.05-0.21-0.14-0.45-0.27-0.73c-0.13-0.28-0.32-0.55-0.58-0.81c-0.26-0.26-0.58-0.47-0.98-0.64c-0.4-0.17-0.87-0.26-1.42-0.26s-1.02,0.09-1.42,0.26c-0.4,0.17-0.72,0.39-0.98,0.64c-0.26,0.26-0.45,0.53-0.58,0.81c-0.13,0.28-0.22,0.53-0.27,0.73H51.31z M63.64,7.28h4.87v14.78h5.64v4.27h-10.5V7.28z M89.59,26.33h-4.27v-1.54h-0.05c-0.19,0.34-0.43,0.64-0.72,0.9s-0.63,0.47-1,0.64c-0.38,0.17-0.78,0.3-1.2,0.37c-0.42,0.08-0.84,0.12-1.25,0.12c-1.13,0-2.14-0.21-3.04-0.62s-1.64-0.97-2.25-1.67c-0.61-0.7-1.08-1.51-1.4-2.43s-0.49-1.89-0.49-2.92c0-1.17,0.2-2.22,0.59-3.17c0.39-0.94,0.92-1.75,1.57-2.41c0.65-0.66,1.41-1.17,2.28-1.52c0.87-0.35,1.78-0.53,2.74-0.53c0.58,0,1.11,0.06,1.57,0.19c0.46,0.13,0.87,0.29,1.21,0.49c0.34,0.2,0.63,0.41,0.85,0.64c0.22,0.23,0.4,0.46,0.54,0.68h0.05v-1.52h4.27V26.33z M78.19,19.23c0,0.34,0.06,0.72,0.19,1.13c0.13,0.41,0.33,0.8,0.62,1.17s0.65,0.68,1.09,0.93s1,0.37,1.65,0.37c0.67,0,1.23-0.12,1.69-0.37c0.45-0.25,0.82-0.56,1.11-0.93s0.49-0.77,0.61-1.2c0.12-0.43,0.18-0.81,0.18-1.16c0-0.43-0.07-0.86-0.22-1.29c-0.15-0.43-0.37-0.82-0.67-1.17c-0.3-0.35-0.68-0.63-1.13-0.85c-0.46-0.21-0.98-0.32-1.58-0.32c-0.62,0-1.15,0.12-1.58,0.35c-0.44,0.23-0.8,0.53-1.09,0.89c-0.29,0.36-0.51,0.75-0.64,1.18C78.26,18.4,78.19,18.82,78.19,19.23z M97.49,16.06c0-0.07-0.01-0.17-0.04-0.3c-0.03-0.13-0.08-0.25-0.17-0.36s-0.22-0.21-0.4-0.3c-0.18-0.08-0.42-0.13-0.73-0.13c-0.45,0-0.76,0.11-0.94,0.33c-0.18,0.22-0.27,0.43-0.27,0.62c0,0.39,0.22,0.71,0.67,0.94s0.95,0.43,1.52,0.61c0.6,0.17,1.2,0.36,1.8,0.55s1.14,0.46,1.61,0.79c0.47,0.33,0.85,0.74,1.15,1.24c0.29,0.5,0.44,1.13,0.44,1.91c0,0.75-0.15,1.43-0.46,2.03c-0.31,0.6-0.73,1.11-1.26,1.53c-0.53,0.42-1.15,0.74-1.85,0.96c-0.7,0.22-1.45,0.33-2.24,0.33c-0.55,0-1.14-0.07-1.78-0.21c-0.63-0.14-1.24-0.39-1.8-0.75s-1.06-0.85-1.47-1.46c-0.41-0.61-0.67-1.39-0.77-2.33h4.25c0.05,0.33,0.15,0.58,0.31,0.76c0.15,0.18,0.32,0.31,0.5,0.39c0.18,0.08,0.35,0.12,0.5,0.14c0.15,0.02,0.26,0.03,0.31,0.03c0.36,0,0.7-0.1,1.02-0.3c0.32-0.2,0.48-0.47,0.48-0.81c0-0.27-0.07-0.5-0.21-0.67c-0.14-0.17-0.36-0.33-0.66-0.49c-0.3-0.15-0.69-0.32-1.17-0.49s-1.06-0.39-1.75-0.64c-0.46-0.15-0.9-0.34-1.31-0.57s-0.77-0.49-1.08-0.8c-0.31-0.31-0.55-0.66-0.73-1.06c-0.18-0.39-0.27-0.83-0.27-1.31c0-0.7,0.15-1.35,0.45-1.93c0.3-0.58,0.7-1.08,1.21-1.49s1.09-0.73,1.76-0.95c0.67-0.22,1.37-0.33,2.11-0.33c0.46,0,1,0.06,1.6,0.18c0.6,0.12,1.17,0.34,1.71,0.67c0.54,0.33,1.02,0.78,1.43,1.36c0.41,0.58,0.66,1.35,0.75,2.29H97.49z M108.48,12.05h2.06v3.24h-2.06v11.04h-4.27V15.29h-2.11v-3.24h2.11V7.28h4.27V12.05z M117.96,7.28h4.87v19.05h-4.87V7.28z M124.8,12.05h3.99v1.52h0.05c0.09-0.15,0.21-0.34,0.39-0.57c0.17-0.22,0.41-0.44,0.71-0.66c0.3-0.21,0.68-0.4,1.15-0.55c0.46-0.15,1.03-0.23,1.7-0.23c0.31,0,0.65,0.03,1.02,0.1c0.37,0.07,0.73,0.2,1.09,0.39s0.71,0.45,1.06,0.77c0.34,0.33,0.66,0.75,0.95,1.29c0.45-0.7,1.04-1.3,1.78-1.8c0.74-0.5,1.66-0.75,2.75-0.75c0.26,0,0.54,0.02,0.85,0.05c0.31,0.03,0.63,0.1,0.97,0.21c0.33,0.1,0.67,0.25,1,0.44c0.33,0.19,0.65,0.44,0.94,0.75c0.33,0.36,0.59,0.7,0.8,1.02c0.21,0.32,0.36,0.68,0.48,1.09c0.11,0.41,0.18,0.89,0.22,1.43c0.03,0.54,0.05,1.21,0.05,2v7.8h-4.27v-7.59c0-0.29-0.01-0.62-0.04-0.99c-0.03-0.37-0.11-0.71-0.24-1.03c-0.14-0.32-0.35-0.59-0.64-0.81c-0.29-0.22-0.71-0.33-1.26-0.33c-0.6,0-1.06,0.12-1.38,0.35s-0.55,0.51-0.7,0.84c-0.15,0.33-0.23,0.65-0.26,0.98c-0.03,0.33-0.04,0.59-0.04,0.8v7.8h-4.27v-7.77c0-0.19-0.01-0.45-0.04-0.79c-0.03-0.33-0.1-0.67-0.23-0.99s-0.34-0.61-0.63-0.85s-0.7-0.36-1.24-0.36c-0.6,0-1.06,0.12-1.39,0.37c-0.33,0.25-0.57,0.54-0.72,0.89c-0.15,0.34-0.24,0.69-0.27,1.05c-0.03,0.36-0.04,0.64-0.04,0.85v7.59h-4.27V12.05z M163.47,26.33h-4.27v-1.54h-0.05c-0.19,0.34-0.43,0.64-0.72,0.9s-0.63,0.47-1,0.64c-0.38,0.17-0.78,0.3-1.2,0.37c-0.42,0.08-0.84,0.12-1.25,0.12c-1.13,0-2.14-0.21-3.04-0.62s-1.64-0.97-2.25-1.67c-0.61-0.7-1.08-1.51-1.4-2.43s-0.49-1.89-0.49-2.92c0-1.17,0.2-2.22,0.59-3.17c0.39-0.94,0.92-1.75,1.57-2.41c0.65-0.66,1.41-1.17,2.28-1.52c0.87-0.35,1.78-0.53,2.74-0.53c0.58,0,1.11,0.06,1.57,0.19c0.46,0.13,0.87,0.29,1.21,0.49c0.34,0.2,0.63,0.41,0.85,0.64c0.22,0.23,0.4,0.46,0.54,0.68h0.05v-1.52h4.27V26.33z M152.06,19.23c0,0.34,0.06,0.72,0.19,1.13c0.13,0.41,0.33,0.8,0.62,1.17s0.65,0.68,1.09,0.93s1,0.37,1.65,0.37c0.67,0,1.23-0.12,1.69-0.37c0.45-0.25,0.82-0.56,1.11-0.93s0.49-0.77,0.61-1.2c0.12-0.43,0.18-0.81,0.18-1.16c0-0.43-0.07-0.86-0.22-1.29c-0.15-0.43-0.37-0.82-0.67-1.17c-0.3-0.35-0.68-0.63-1.13-0.85c-0.46-0.21-0.98-0.32-1.58-0.32c-0.62,0-1.15,0.12-1.58,0.35c-0.44,0.23-0.8,0.53-1.09,0.89c-0.29,0.36-0.51,0.75-0.64,1.18C152.13,18.4,152.06,18.82,152.06,19.23z M180.1,24.61c0,1.06-0.06,1.96-0.17,2.7c-0.11,0.74-0.34,1.41-0.68,2.01c-0.27,0.45-0.64,0.88-1.09,1.29c-0.46,0.41-0.99,0.77-1.61,1.08c-0.62,0.31-1.31,0.55-2.07,0.73c-0.76,0.18-1.58,0.27-2.46,0.27c-1.24,0-2.29-0.17-3.17-0.5c-0.88-0.33-1.6-0.75-2.16-1.25s-0.99-1.04-1.27-1.62c-0.28-0.58-0.46-1.13-0.53-1.65h4.94c0.15,0.36,0.36,0.63,0.6,0.82s0.5,0.33,0.76,0.41c0.26,0.09,0.49,0.14,0.71,0.15c0.21,0.02,0.36,0.03,0.42,0.03c0.14,0,0.39-0.02,0.77-0.06c0.38-0.04,0.77-0.19,1.17-0.44c0.4-0.25,0.76-0.63,1.07-1.16c0.31-0.52,0.46-1.26,0.46-2.23v-0.44h-0.05c-0.1,0.21-0.26,0.43-0.48,0.67c-0.21,0.24-0.49,0.46-0.81,0.66s-0.7,0.36-1.13,0.5c-0.43,0.14-0.93,0.21-1.49,0.21c-0.98,0-1.9-0.18-2.77-0.53s-1.63-0.85-2.29-1.51c-0.66-0.65-1.18-1.44-1.57-2.37c-0.39-0.93-0.58-1.96-0.58-3.11c0-1.22,0.2-2.3,0.61-3.26c0.4-0.95,0.94-1.76,1.61-2.42c0.67-0.66,1.44-1.16,2.3-1.51c0.87-0.34,1.76-0.51,2.69-0.51c0.81,0,1.57,0.15,2.28,0.44c0.71,0.29,1.27,0.75,1.66,1.36h0.05v-1.34h4.27V24.61z M168.9,19.12c0,0.57,0.09,1.08,0.28,1.53c0.19,0.46,0.44,0.84,0.76,1.16s0.68,0.56,1.09,0.73c0.41,0.17,0.84,0.26,1.29,0.26c0.51,0,0.99-0.09,1.42-0.27c0.43-0.18,0.8-0.42,1.11-0.73c0.31-0.31,0.55-0.68,0.72-1.12c0.17-0.44,0.26-0.91,0.26-1.43c0-0.57-0.09-1.08-0.27-1.53c-0.18-0.45-0.43-0.84-0.75-1.16s-0.69-0.56-1.11-0.73c-0.42-0.17-0.87-0.26-1.35-0.26c-0.46,0-0.9,0.09-1.31,0.26c-0.41,0.17-0.78,0.42-1.09,0.73s-0.57,0.69-0.76,1.13C168.99,18.13,168.9,18.61,168.9,19.12z M195.62,21.85c-0.34,0.81-0.76,1.51-1.26,2.12c-0.5,0.61-1.05,1.12-1.65,1.53c-1.2,0.86-2.56,1.29-4.07,1.29c-1.03,0-2-0.19-2.91-0.58c-0.91-0.39-1.71-0.92-2.41-1.61s-1.24-1.49-1.65-2.41c-0.4-0.92-0.6-1.91-0.6-2.97c0-1,0.18-1.96,0.55-2.88s0.89-1.74,1.56-2.45c0.67-0.7,1.46-1.27,2.38-1.7s1.92-0.64,3-0.64s2.08,0.2,3.01,0.6c0.93,0.4,1.72,0.96,2.39,1.66c0.67,0.7,1.19,1.53,1.57,2.48c0.38,0.95,0.57,1.97,0.57,3.05c0,0.29-0.01,0.51-0.03,0.66c-0.02,0.15-0.04,0.3-0.08,0.48H185.3c0.14,0.86,0.52,1.52,1.15,1.99c0.63,0.47,1.36,0.71,2.2,0.71c0.65,0,1.18-0.13,1.57-0.39c0.39-0.26,0.74-0.58,1.03-0.95H195.62z M191.83,17.61c-0.05-0.21-0.14-0.45-0.27-0.73s-0.32-0.55-0.58-0.81c-0.26-0.26-0.58-0.47-0.98-0.64s-0.87-0.26-1.42-0.26c-0.55,0-1.02,0.09-1.42,0.26c-0.4,0.17-0.72,0.39-0.98,0.64c-0.26,0.26-0.45,0.53-0.58,0.81s-0.22,0.53-0.27,0.73H191.83z"/></svg>
